<?xml version="1.0" standalone="no"?>
<!DOCTYPE svg PUBLIC "-//W3C//DTD SVG 20010904//EN"
 "http://www.w3.org/TR/2001/REC-SVG-20010904/DTD/svg10.dtd">
<svg version="1.0" xmlns="http://www.w3.org/2000/svg"
 width="729.000000pt" height="600.000000pt" viewBox="0 0 729.000000 600.000000"
 preserveAspectRatio="xMidYMid meet">

<g transform="translate(0.000000,600.000000) scale(0.100000,-0.100000)"
fill="#000000" stroke="none">
<path d="M1842 5691 c-372 -207 -622 -537 -842 -1108 l-47 -123 -101 -64
c-315 -200 -499 -415 -556 -647 -23 -92 -21 -247 4 -343 35 -139 126 -307 248
-461 30 -38 124 -140 207 -225 145 -148 155 -161 214 -275 377 -728 1151
-1283 2351 -1685 549 -184 1242 -348 1963 -465 174 -29 171 -29 427 16 354 63
563 138 717 260 128 103 257 316 289 479 26 134 17 221 -61 585 -33 154 -42
323 -24 436 8 54 14 178 14 344 2 420 34 550 200 804 123 187 147 291 121 513
-8 73 -17 167 -20 208 -7 88 -33 190 -74 279 l-29 64 -76 27 c-207 76 -291
209 -320 509 -13 124 -18 145 -48 202 -173 325 -818 534 -1974 638 -540 49
-873 62 -1740 67 l-770 5 -73 -40z m1058 -101 c746 -12 1159 -33 1640 -81 196
-19 561 -67 568 -74 2 -1 -68 -6 -155 -10 -267 -13 -715 13 -1118 66 -418 54
-583 53 -854 -7 -314 -70 -542 -188 -1049 -544 -51 -36 -113 -79 -137 -95 -33
-23 -42 -34 -35 -45 7 -12 32 1 127 67 259 180 492 334 572 377 333 182 656
262 1006 249 102 -4 129 -7 410 -42 386 -49 496 -56 908 -56 322 0 399 3 406
13 7 12 27 10 117 -8 538 -106 878 -262 973 -447 13 -27 23 -77 31 -159 16
-177 48 -286 114 -387 64 -99 165 -180 277 -222 46 -17 47 -18 74 -98 19 -58
29 -116 35 -197 5 -63 14 -151 20 -195 23 -154 0 -245 -100 -399 -183 -280
-221 -432 -225 -886 -1 -156 -7 -298 -15 -345 -20 -129 -7 -276 46 -530 42
-196 47 -234 48 -350 0 -111 -3 -138 -22 -185 -66 -166 -198 -325 -327 -392
-139 -72 -379 -136 -686 -183 l-106 -16 -184 31 c-1816 304 -3031 786 -3725
1475 -198 197 -342 393 -455 618 -58 117 -62 122 -212 271 -178 176 -297 329
-368 471 -63 127 -83 205 -82 320 1 103 28 197 85 292 77 129 276 306 478 425
85 50 90 56 106 103 33 100 117 302 169 410 168 346 368 578 630 731 49 29 53
29 240 34 105 3 195 7 200 8 6 1 264 -3 575 -8z"/>
<path d="M3220 5283 c-493 -47 -706 -131 -1050 -415 -101 -83 -176 -141 -238
-184 -2 -1 0 -10 5 -19 8 -13 19 -8 79 36 38 28 116 91 174 139 293 242 462
323 796 380 283 49 754 52 980 6 230 -46 287 -51 579 -50 251 0 299 3 465 28
340 50 466 45 577 -20 39 -23 63 -25 63 -6 0 14 -87 61 -145 78 -88 26 -221
21 -495 -17 -212 -29 -259 -33 -475 -33 -251 0 -396 15 -617 65 -77 17 -123
19 -375 17 -159 0 -304 -3 -323 -5z"/>
<path d="M3075 5084 c-301 -43 -456 -95 -630 -208 -95 -62 -265 -210 -265
-231 0 -31 20 -20 99 56 293 280 646 381 1231 352 159 -8 217 -8 222 1 4 6 3
15 -2 20 -9 9 -600 18 -655 10z"/>
<path d="M4985 5034 c-167 -24 -387 -67 -403 -79 -1 -1 0 -9 3 -17 5 -13 19
-12 103 8 151 37 288 54 428 54 213 0 344 -41 449 -141 57 -54 119 -160 131
-225 4 -25 11 -34 25 -34 22 0 20 20 -13 105 -59 154 -176 256 -348 305 -73
21 -298 35 -375 24z"/>
<path d="M3608 4998 c-3 -7 16 -32 42 -55 65 -58 93 -125 96 -228 2 -67 5 -81
19 -83 16 -4 17 5 13 90 -5 115 -35 186 -105 248 -49 43 -59 47 -65 28z"/>
<path d="M4682 4772 c-40 -37 -52 -86 -52 -209 0 -85 3 -103 15 -103 8 0 15 3
15 8 3 214 9 248 57 288 14 12 22 27 19 33 -11 17 -21 14 -54 -17z"/>
<path d="M2760 4649 c-262 -10 -332 -22 -426 -68 -104 -52 -123 -67 -190 -157
-67 -90 -75 -125 -42 -203 28 -66 55 -87 142 -111 l66 -19 73 25 c145 49 259
67 437 67 133 0 185 -4 270 -22 175 -37 360 -108 452 -172 49 -35 145 -19 205
34 45 40 109 170 118 241 5 39 3 61 -9 83 -37 73 -254 202 -423 252 -100 30
-323 61 -422 59 -47 -1 -160 -5 -251 -9z m495 -154 c113 -16 177 -36 300 -94
86 -40 175 -104 175 -125 0 -29 -70 -155 -89 -161 -15 -4 -55 10 -134 49 -123
61 -261 109 -365 128 -37 6 -69 13 -71 14 -2 2 8 17 22 34 35 41 43 91 24 141
l-16 40 27 -5 c15 -3 72 -12 127 -21z m-733 -55 c-4 -42 0 -56 22 -90 32 -48
32 -50 3 -50 -13 0 -73 -14 -133 -31 -117 -33 -166 -33 -184 1 -8 14 -2 29 25
70 19 29 46 61 59 71 40 32 149 79 182 79 l31 0 -5 -50z"/>
<path d="M5141 4510 c-177 -37 -480 -179 -546 -256 -18 -21 -30 -24 -102 -26
l-82 -2 -10 -61 c-6 -34 -11 -65 -11 -68 0 -4 34 -7 75 -7 l75 0 0 -147 c0
-134 2 -153 24 -198 28 -61 79 -109 177 -165 41 -24 89 -54 107 -68 31 -24 32
-27 32 -99 0 -74 0 -74 -44 -121 -25 -26 -97 -80 -161 -121 l-117 -75 -44 24
c-24 13 -45 22 -47 20 -13 -15 -57 -99 -57 -108 0 -19 115 -82 150 -82 24 0
67 23 164 87 160 105 230 163 259 214 12 21 25 39 28 39 3 0 16 -11 29 -25
l23 -25 71 38 c39 20 73 38 75 40 3 1 -5 33 -17 71 l-22 69 -55 7 c-30 3 -63
4 -74 0 -16 -5 -20 1 -26 36 -10 58 -68 118 -175 181 -102 60 -131 82 -147
111 -8 14 -12 69 -13 149 l0 126 149 1 c225 1 524 48 716 113 83 27 115 65
115 132 0 70 -62 136 -168 177 -46 18 -81 23 -182 25 -69 2 -145 -1 -169 -6z
m223 -130 c58 -9 146 -45 146 -59 0 -12 -279 -81 -324 -81 -8 0 -16 14 -20 32
-3 18 -18 44 -32 59 -25 26 -25 27 -5 34 18 5 117 20 161 24 8 0 41 -3 74 -9z"/>
<path d="M1885 4315 c-80 -15 -110 -24 -110 -35 0 -23 46 -40 140 -52 80 -10
85 -12 70 -28 -13 -15 -14 -19 -1 -29 11 -9 18 -7 34 14 21 26 20 52 -2 67 -6
4 -38 8 -71 8 -91 0 -96 14 -10 29 51 8 75 17 75 26 0 8 -3 16 -7 18 -5 2 -57
-6 -118 -18z"/>
<path d="M1167 4298 c-91 -10 -218 -54 -280 -96 -120 -83 -216 -233 -251 -391
-33 -146 -19 -353 33 -504 50 -144 150 -276 245 -324 64 -33 176 -45 176 -19
0 12 -9 16 -34 16 -131 0 -267 120 -341 301 -46 114 -68 248 -61 379 6 129 24
207 68 295 111 224 311 327 603 311 66 -4 137 -9 158 -12 29 -5 37 -3 37 9 0
18 -21 23 -145 37 -100 11 -99 11 -208 -2z"/>
<path d="M5806 4301 c-15 -23 7 -28 146 -34 392 -16 691 -187 778 -447 17 -51
21 -82 18 -150 -3 -76 -8 -95 -41 -162 -52 -106 -152 -199 -281 -262 -51 -25
-98 -46 -105 -46 -12 0 -15 -22 -5 -33 3 -3 34 7 68 21 282 121 434 335 398
564 -32 212 -216 400 -477 487 -127 42 -223 59 -367 67 -90 5 -127 4 -132 -5z"/>
<path d="M1181 4103 c-68 -35 -161 -126 -226 -223 l-50 -74 3 -241 c3 -202 12
-329 25 -341 1 -2 33 4 70 12 58 13 67 19 62 34 -25 77 -37 491 -15 505 5 3
26 30 45 60 44 66 104 121 159 146 32 14 65 19 146 19 142 0 224 -15 285 -51
100 -59 192 -99 270 -118 216 -51 310 -65 481 -69 198 -5 226 3 311 80 26 25
76 65 110 91 53 40 113 112 102 121 -2 2 -32 12 -66 24 -55 18 -63 19 -75 5
-6 -8 -39 -36 -73 -61 -33 -25 -79 -63 -102 -84 l-43 -38 -141 0 c-235 0 -522
62 -653 141 -139 84 -138 83 -366 86 l-205 3 -54 -27z"/>
<path d="M6290 4065 c0 -8 12 -17 28 -21 92 -20 164 -84 204 -183 32 -78 32
-253 1 -322 -25 -55 -70 -101 -115 -119 -18 -7 -34 -14 -36 -15 -1 -1 0 -9 4
-18 5 -15 9 -15 42 -1 145 60 210 282 139 474 -39 106 -101 175 -186 205 -55
19 -81 19 -81 0z"/>
<path d="M6005 3945 c-33 -9 -127 -39 -210 -67 -136 -47 -158 -52 -240 -52
-49 -1 -104 3 -120 7 -30 8 -31 7 -53 -54 -12 -34 -21 -63 -19 -65 1 -2 29
-10 62 -19 116 -30 229 -14 437 59 190 67 209 70 319 51 52 -9 98 -20 103 -25
5 -5 31 10 63 37 43 37 51 48 41 60 -45 55 -273 95 -383 68z"/>
<path d="M1555 3825 c-5 -2 -22 -6 -36 -9 -23 -5 -28 -13 -39 -68 -13 -70 -34
-100 -105 -154 -56 -43 -105 -63 -152 -64 l-33 0 0 -71 0 -72 48 6 c26 4 56 9
67 12 17 5 26 -5 54 -62 18 -37 46 -84 62 -104 16 -20 29 -40 29 -44 0 -17
183 -280 274 -395 124 -155 365 -397 511 -514 527 -420 1130 -672 1845 -771
157 -22 608 -31 781 -16 222 20 396 51 584 103 61 16 115 31 120 32 38 7 271
104 379 157 112 55 177 117 222 213 102 215 119 534 58 1071 -16 137 -17 142
-64 225 -52 92 -80 172 -80 231 0 40 -2 41 -70 54 -19 4 -42 9 -52 11 -23 7
-36 -39 -46 -162 -8 -89 -12 -106 -40 -146 -106 -154 -340 -271 -652 -328
-415 -74 -1052 -42 -1715 86 -734 143 -1457 391 -1710 587 -39 30 -94 66 -122
81 -52 26 -53 27 -53 71 0 43 -1 45 -27 44 -16 0 -32 -2 -38 -4z m106 -267
c26 -18 66 -48 89 -66 46 -35 253 -141 362 -187 l67 -28 -19 -25 c-16 -20 -20
-40 -20 -104 l0 -79 -37 7 c-135 24 -301 89 -384 150 -72 53 -102 103 -127
214 -27 114 -27 119 -4 136 23 18 21 18 73 -18z m4388 -344 c18 -30 45 -152
36 -162 -3 -4 -105 134 -105 142 0 12 32 56 40 56 4 0 18 -16 29 -36z m-3560
-48 c192 -63 355 -109 554 -158 95 -23 174 -43 176 -44 1 -2 -8 -27 -22 -56
-14 -29 -29 -73 -32 -96 l-7 -44 -36 7 c-20 4 -52 15 -72 25 -57 29 -242 88
-410 131 -128 33 -264 74 -278 85 -5 4 -18 194 -13 194 2 0 65 -20 140 -44z
m3375 -140 c4 -19 29 -80 56 -136 28 -55 50 -111 49 -123 0 -26 -93 -101 -114
-93 -8 3 -16 28 -19 63 -14 141 -27 217 -41 246 -12 25 -13 32 -3 38 7 4 22
15 33 23 28 22 32 20 39 -18z m-3964 -92 c106 -29 260 -97 260 -114 0 -6 -10
-25 -22 -41 -20 -27 -23 -42 -22 -116 l2 -85 -75 73 c-67 66 -247 273 -267
308 -6 10 -4 12 10 8 11 -3 62 -18 114 -33z m1710 -48 c80 -14 195 -32 255
-41 61 -8 122 -18 137 -21 l26 -5 -15 -37 c-10 -23 -18 -79 -21 -144 l-5 -108
-37 0 c-47 0 -255 35 -324 55 -211 59 -276 85 -276 111 0 7 13 40 30 75 16 34
32 82 36 107 6 38 9 43 28 38 11 -2 86 -16 166 -30z m2018 -43 c13 -43 32
-112 43 -153 l19 -75 -21 -17 c-32 -27 -90 -41 -120 -30 -21 8 -29 24 -48 89
-12 43 -32 106 -43 141 -11 35 -18 65 -17 66 6 5 143 54 154 55 6 0 21 -34 33
-76z m-393 -60 c4 -21 22 -79 41 -129 39 -105 41 -121 17 -128 -95 -29 -496
-67 -514 -49 -6 6 -7 43 0 109 5 54 6 120 2 146 l-8 46 116 7 c64 4 161 13
216 20 55 7 105 13 111 14 7 0 15 -16 19 -36z m-845 7 c80 -5 154 -10 165 -10
18 0 23 -13 40 -102 20 -104 25 -192 11 -205 -12 -12 -253 -5 -336 9 l-75 14
-6 138 c-4 78 -12 143 -18 149 -21 21 -11 28 32 22 23 -3 107 -10 187 -15z
m-1955 -183 c39 -15 122 -42 185 -62 63 -20 144 -51 181 -69 36 -18 99 -41
139 -51 l72 -18 -5 -32 c-3 -19 -30 -86 -61 -150 -30 -64 -58 -132 -62 -151
-3 -19 -12 -34 -19 -34 -35 0 -397 235 -531 345 l-69 57 3 61 c2 34 8 85 14
114 l11 52 36 -18 c20 -10 68 -30 106 -44z m829 -283 c33 -8 98 -33 143 -55
79 -38 124 -51 346 -99 l97 -21 0 -42 c0 -23 -9 -103 -20 -177 -11 -74 -20
-156 -20 -183 0 -47 0 -47 -27 -41 -184 42 -362 94 -498 145 -124 46 -247 98
-258 109 -5 4 5 30 22 57 45 73 98 191 111 248 21 88 11 83 104 59z m2811
-171 c-13 -53 -57 -142 -82 -165 l-26 -23 7 34 c3 18 6 58 6 88 0 54 0 54 43
73 56 25 60 24 52 -7z m-1770 -73 c83 -12 169 -23 193 -26 l42 -5 0 -75 c0
-68 -35 -332 -45 -343 -12 -12 -418 17 -491 35 -25 6 -28 -9 42 227 24 82 44
165 44 184 0 34 1 35 33 30 17 -3 100 -15 182 -27z m1438 -22 c-10 -54 -10
-145 -1 -179 6 -22 3 -28 -17 -37 l-25 -12 0 135 0 135 25 0 c24 0 25 -2 18
-42z m-186 5 c-64 -219 -77 -268 -77 -287 0 -19 -9 -25 -59 -39 -83 -23 -243
-58 -247 -54 -7 7 55 235 75 275 24 47 45 58 176 97 100 30 139 32 132 8z
m-463 -85 c-3 -13 -14 -39 -24 -58 -30 -62 -50 -135 -55 -201 l-4 -64 -98 -12
c-54 -6 -133 -12 -175 -12 l-77 -1 35 78 c55 117 84 193 91 235 4 26 13 41 27
47 12 5 81 9 154 9 l133 1 -7 -22z"/>
<path d="M3275 3590 c-22 -99 -138 -145 -392 -157 -110 -5 -143 -9 -143 -20 0
-10 26 -13 123 -13 190 1 331 34 396 93 42 39 68 127 37 127 -8 0 -17 -13 -21
-30z"/>
<path d="M3625 3613 c-122 -16 -207 -63 -237 -130 -25 -57 -20 -104 22 -209
16 -42 30 -82 30 -90 0 -16 22 -17 95 -8 46 7 47 8 41 37 -3 17 -21 68 -38
114 -24 62 -29 89 -22 100 14 22 73 41 150 49 l64 7 0 68 0 69 -37 -1 c-21 -1
-51 -4 -68 -6z"/>
<path d="M3766 3366 c-49 -18 -90 -48 -93 -67 -1 -8 18 -31 42 -52 l44 -38 33
17 c51 27 141 23 211 -9 32 -15 61 -27 66 -27 6 0 41 105 41 125 0 2 -26 17
-57 32 -48 23 -74 28 -153 30 -65 2 -107 -1 -134 -11z"/>
<path d="M5247 3306 c-4 -10 19 -23 86 -46 51 -17 114 -45 141 -61 56 -35 99
-32 56 3 -36 29 -114 67 -194 94 -82 28 -82 28 -89 10z"/>
<path d="M2114 1879 c-14 -23 158 -137 355 -234 485 -241 1220 -449 1831 -519
752 -86 1305 11 1590 281 57 53 68 68 58 80 -9 12 -22 4 -72 -45 -71 -69 -123
-106 -221 -154 -373 -187 -1031 -208 -1795 -57 -669 132 -1351 383 -1661 610
-72 53 -75 54 -85 38z"/>
<path d="M1765 1869 c-9 -13 -23 -4 145 -93 1285 -685 2549 -1003 3529 -890
476 55 831 237 831 426 0 45 -18 98 -34 98 -22 0 -24 -11 -9 -49 48 -121 -116
-269 -397 -359 -350 -111 -841 -133 -1390 -61 -759 99 -1657 406 -2487 852
-89 48 -166 87 -172 87 -5 0 -13 -5 -16 -11z"/>
<path d="M4020 1340 c0 -20 4 -20 563 -18 492 3 562 5 562 18 0 13 -70 15
-562 18 -559 2 -563 2 -563 -18z"/>
</g>
</svg>
